<?xml version="1.0" standalone="no"?>
<!DOCTYPE svg PUBLIC "-//W3C//DTD SVG 20010904//EN"
 "http://www.w3.org/TR/2001/REC-SVG-20010904/DTD/svg10.dtd">
<svg version="1.0" xmlns="http://www.w3.org/2000/svg"
 width="1728.000000pt" height="1728.000000pt" viewBox="0 0 1728.000000 1728.000000"
 preserveAspectRatio="xMidYMid meet">
<metadata>
Created by potrace 1.14, written by Peter Selinger 2001-2017
</metadata>
<g transform="translate(0.000000,1728.000000) scale(0.100000,-0.100000)"
fill="#000000" stroke="none">
<path d="M8180 17269 c-1825 -97 -3577 -773 -4990 -1924 -310 -253 -683 -607
-952 -903 -1112 -1229 -1844 -2735 -2118 -4360 -223 -1324 -133 -2707 259
-3982 333 -1081 893 -2115 1615 -2982 335 -402 794 -856 1194 -1181 855 -696
1861 -1234 2912 -1558 1640 -504 3440 -504 5080 0 1051 324 2057 862 2912
1558 296 240 688 612 950 901 1112 1229 1844 2735 2118 4360 223 1324 133
2707 -259 3982 -324 1051 -862 2057 -1558 2912 -240 296 -612 688 -901 950
-1229 1112 -2735 1844 -4360 2118 -608 102 -1290 141 -1902 109z m3925 -4324
c109 -15 312 -135 437 -257 178 -175 238 -306 238 -518 0 -118 -15 -192 -61
-289 -125 -269 -380 -431 -681 -431 -168 0 -303 55 -419 170 -154 154 -194
330 -114 507 49 109 111 162 214 184 131 28 318 -58 430 -196 l36 -45 14 32
c21 51 18 136 -7 184 -36 70 -119 130 -213 154 -32 8 -1267 12 -4354 14 -2371
2 -4350 3 -4398 4 -147 1 -263 -42 -337 -125 -58 -66 -69 -131 -39 -229 l10
-31 78 78 c87 88 182 141 284 160 178 32 322 -89 356 -302 38 -237 -163 -487
-439 -545 -88 -19 -241 -14 -335 11 -228 61 -422 246 -506 482 -15 40 -23 94
-26 174 -9 199 36 335 159 476 156 178 358 310 519 337 48 8 1291 10 4590 9
2488 -1 4542 -5 4564 -8z m-845 -950 l0 -145 -3735 0 -3735 0 0 145 0 145
3735 0 3735 0 0 -145z m0 -560 l0 -145 -3735 0 -3735 0 0 145 0 145 3735 0
3735 0 0 -145z m5246 -47 c119 -56 121 -273 4 -531 -12 -27 -47 -78 -79 -115
-31 -37 -194 -232 -362 -433 l-306 -366 -5 -1691 -5 -1691 -98 -108 c-55 -59
-102 -109 -105 -111 -25 -11 -67 131 -378 1275 -185 682 -341 1241 -345 1242
-6 2 -531 -611 -634 -740 -9 -12 -15 -149 -23 -529 l-10 -512 -57 -66 c-146
-168 -176 -188 -208 -139 -8 13 -43 162 -77 331 -62 305 -63 308 -92 323 -41
21 -66 7 -122 -69 -50 -69 -61 -76 -116 -77 -21 -1 -38 -5 -38 -9 0 -5 16 -27
35 -49 19 -23 35 -44 35 -48 0 -10 -141 -194 -326 -425 -689 -862 -1371 -1528
-2058 -2009 -564 -395 -1083 -625 -1551 -687 -160 -22 -429 -14 -565 16 -525
114 -906 418 -1155 924 -162 328 -238 681 -239 1101 0 232 10 346 50 589 155
939 627 1689 1379 2195 543 365 1113 486 1715 365 321 -65 545 -176 730 -363
103 -103 155 -179 196 -287 36 -92 45 -265 19 -364 -74 -285 -307 -457 -713
-525 -57 -10 -105 -15 -108 -12 -3 3 1 18 9 34 73 141 93 447 41 623 -59 201
-207 345 -429 419 -221 73 -428 67 -646 -21 -444 -180 -943 -744 -1192 -1348
-105 -255 -182 -560 -218 -870 -16 -137 -16 -449 0 -570 71 -538 311 -939 671
-1120 189 -95 421 -135 655 -110 623 64 1344 507 2204 1354 371 366 765 803
1130 1251 63 77 116 142 118 144 2 3 24 -15 49 -40 l46 -44 -6 52 -7 53 66 86
c59 79 65 92 65 134 0 78 -6 82 -275 156 -132 36 -245 67 -252 69 -7 2 -17 22
-24 44 -20 67 -2 103 99 204 l88 87 387 19 c213 9 391 22 396 27 21 23 561
705 594 751 l39 53 -24 9 c-246 97 -1964 815 -1970 824 -30 46 9 131 109 237
l75 80 1351 2 1350 3 359 475 359 475 62 30 c121 57 242 66 333 23z m-9426
-583 l0 -155 -212 0 c-232 -1 -320 -12 -429 -53 -217 -82 -386 -278 -424 -492
-12 -66 -14 -261 -15 -1092 l0 -1013 810 0 c446 0 810 -2 810 -3 0 -2 -25 -55
-56 -117 -145 -293 -249 -653 -286 -987 l-12 -113 -633 0 -634 0 4 -1047 c3
-1167 -2 -1082 74 -1233 27 -55 59 -97 118 -155 93 -93 160 -135 282 -178 l88
-32 253 -3 252 -4 0 -159 0 -159 -1580 0 -1580 0 0 160 0 160 218 0 c120 0
245 5 278 11 206 38 406 184 493 361 78 158 71 -105 69 2914 l-3 2709 -26 72
c-74 202 -247 358 -469 424 -65 19 -106 22 -312 26 l-238 5 0 154 0 154 1580
0 1580 0 0 -155z m7116 -7321 c20 -34 24 -48 15 -57 -34 -34 -3 -92 132 -240
l80 -88 -35 -35 -35 -35 -156 171 c-87 94 -157 174 -157 178 1 4 12 20 25 37
23 28 24 29 44 11 20 -18 20 -18 14 18 -6 36 16 86 37 86 5 0 21 -21 36 -46z
m-10644 -255 c51 -44 94 -84 96 -89 3 -8 -67 -70 -79 -70 -4 0 -33 22 -65 49
l-58 50 -48 -41 c-26 -22 -48 -43 -48 -47 0 -4 27 -29 60 -57 l60 -49 -40 -39
c-44 -44 -37 -46 -125 28 l-46 39 -57 -54 c-31 -30 -78 -73 -103 -97 l-45 -42
-39 33 -39 34 70 65 c228 213 398 368 405 368 4 0 49 -36 101 -81z m10475 6
c33 -10 69 -31 100 -59 l48 -45 -115 -115 c-109 -110 -113 -116 -95 -131 59
-44 149 -1 161 76 6 34 10 38 51 48 59 15 67 8 60 -50 -20 -163 -169 -247
-303 -169 -192 109 -209 381 -27 445 49 18 59 18 120 0z m-10263 -148 c28 -20
18 -85 -16 -110 -23 -17 -33 -19 -55 -11 -24 8 -28 16 -31 51 -3 34 1 44 24
62 31 24 53 26 78 8z m-129 -146 l33 -28 -168 -168 -169 -168 -35 27 c-20 15
-36 31 -36 35 0 9 328 331 337 331 3 0 20 -13 38 -29z m10055 -33 c19 -13 78
-88 133 -167 107 -155 107 -155 53 -195 -24 -18 -29 -19 -36 -6 -28 48 -178
255 -191 263 -29 18 -66 0 -79 -39 -17 -49 2 -94 95 -230 l74 -108 -37 -32
-37 -33 -20 27 c-11 14 -73 104 -137 198 l-118 173 39 31 c24 18 42 26 46 20
11 -18 25 -11 25 13 0 28 32 77 62 93 36 20 91 17 128 -8z m-9927 -71 c21 -17
21 -26 2 -47 -15 -16 -13 -17 24 -7 32 9 44 8 65 -6 14 -10 26 -21 26 -25 0
-4 -20 -20 -45 -36 -36 -22 -48 -26 -60 -16 -33 27 -77 1 -194 -116 -63 -63
-117 -114 -120 -114 -4 0 -22 13 -40 28 l-34 28 164 171 c170 179 166 176 212
140z m9483 -92 c45 -70 48 -73 68 -60 28 21 30 20 59 -24 l26 -40 -25 -18 -26
-19 94 -150 c52 -82 97 -154 101 -161 4 -6 -9 -24 -32 -42 l-39 -31 -98 155
c-53 85 -102 155 -109 155 -6 0 -16 -5 -22 -11 -7 -7 -17 0 -33 26 -28 45 -34
40 -16 -13 13 -36 13 -42 -1 -53 -32 -27 -12 -98 67 -235 l73 -127 -34 -28
c-19 -16 -37 -29 -40 -29 -4 0 -55 82 -114 183 -60 100 -114 192 -122 204 -13
20 -11 23 22 49 35 26 36 26 50 8 14 -18 14 -18 15 4 0 35 28 82 49 82 10 0
26 9 36 20 17 19 16 22 -28 92 l-46 73 37 32 c20 18 38 32 39 33 1 0 23 -34
49 -75z m-9236 -70 c34 -18 59 -59 62 -106 3 -29 -2 -35 -37 -56 l-40 -22 -8
36 c-9 44 -23 63 -47 63 -28 0 -32 -26 -15 -107 24 -116 -3 -184 -87 -218 -52
-21 -96 -14 -139 22 -58 49 -80 146 -36 162 64 24 65 24 72 -11 10 -50 32 -78
60 -78 38 0 46 28 30 96 -19 78 -18 119 2 161 31 66 116 93 183 58z m345 -37
c19 -13 35 -27 35 -32 0 -4 -23 -35 -52 -68 l-52 -60 23 -19 c25 -20 20 -39
-19 -74 -17 -16 -24 -17 -40 -7 -11 7 -24 12 -28 12 -5 0 -59 -61 -121 -135
-62 -74 -116 -137 -121 -140 -10 -6 -80 35 -80 47 0 4 52 68 115 143 63 75
115 139 115 142 0 3 -7 11 -17 18 -15 11 -14 15 13 49 16 20 35 34 42 31 6 -3
18 -7 25 -10 6 -3 36 24 66 60 29 36 55 65 57 65 3 0 20 -10 39 -22z m8699
-449 c119 -231 116 -214 47 -251 -19 -10 -25 -10 -28 0 -8 21 -21 13 -28 -18
-3 -16 -22 -43 -40 -59 -69 -60 -152 -50 -238 29 -70 63 -100 130 -101 220 -1
132 84 220 185 193 l38 -10 -15 28 c-14 27 -13 29 23 54 21 14 40 25 43 25 3
0 54 -95 114 -211z m-8325 31 c48 -24 87 -70 101 -118 18 -67 16 -72 -40 -72
-37 0 -50 4 -50 14 0 22 -46 72 -80 86 -82 34 -200 -57 -200 -155 0 -15 14
-41 34 -63 32 -34 39 -37 93 -38 57 -1 58 -1 72 -38 20 -52 7 -61 -83 -61 -63
0 -79 4 -122 30 -69 43 -96 93 -92 170 6 100 66 192 158 240 59 31 154 34 209
5z m439 -45 c1 -1 -20 -36 -47 -77 -78 -121 -77 -114 -20 -110 90 7 139 -33
139 -113 0 -45 -12 -68 -117 -232 l-84 -132 -42 20 c-23 10 -41 22 -40 27 1 5
40 68 87 142 47 73 86 143 86 156 0 26 -34 54 -66 54 -41 0 -89 -46 -162 -155
-40 -61 -77 -116 -81 -123 -6 -11 -16 -10 -50 8 -23 11 -41 25 -39 29 2 5 82
130 178 279 l174 270 41 -20 c22 -11 41 -21 43 -23z m7352 -120 c85 -44 153
-159 153 -264 1 -139 -112 -250 -205 -200 -11 6 -22 9 -24 6 -2 -2 16 -50 41
-107 25 -57 44 -104 43 -105 -49 -31 -81 -46 -87 -39 -5 5 -63 139 -130 298
l-123 290 24 18 c37 28 60 33 71 13 8 -15 12 -12 27 21 20 47 37 62 87 79 40
14 82 10 123 -10z m-550 -380 c56 -168 100 -311 97 -318 -3 -7 -23 -20 -45
-29 l-39 -15 -103 314 c-56 173 -101 316 -99 317 11 10 66 35 76 36 6 0 56
-135 113 -305z m-6014 167 c54 -36 27 -132 -37 -132 -36 0 -64 39 -55 75 12
46 62 78 92 57z m-371 -45 c144 -82 98 -341 -77 -425 -73 -36 -175 -25 -232
26 -29 26 -56 92 -56 139 0 97 71 212 159 258 63 33 150 34 206 2z m289 -132
c20 -8 36 -17 36 -20 0 -10 -212 -415 -217 -415 -19 0 -83 25 -83 32 0 16 211
418 220 418 4 0 24 -7 44 -15z m5835 -14 c62 -32 131 -124 131 -175 0 -9 -52
-35 -142 -71 -79 -31 -144 -58 -146 -60 -9 -8 22 -46 48 -60 47 -24 113 0 140
50 12 22 18 24 54 19 23 -4 45 -10 50 -15 26 -23 -39 -116 -103 -148 -113 -56
-217 -18 -278 103 -31 61 -42 173 -23 231 15 46 74 113 115 131 44 19 110 17
154 -5z m-5494 -90 c22 -10 50 -29 62 -42 26 -28 57 -98 48 -108 -4 -3 -25
-11 -48 -16 -40 -11 -43 -10 -62 19 -68 101 -209 60 -244 -71 -28 -104 58
-167 174 -129 17 6 25 -1 44 -34 13 -23 21 -43 20 -44 -44 -39 -157 -49 -224
-22 -82 34 -118 91 -119 181 0 67 31 146 78 202 63 74 186 103 271 64z m5112
-33 c-3 -13 -20 -130 -38 -261 -29 -218 -34 -239 -53 -247 -12 -4 -25 -5 -29
0 -4 4 -64 97 -131 206 l-124 199 27 11 c66 29 61 32 136 -91 l70 -115 20 139
c11 77 24 143 28 148 10 10 67 31 86 32 9 1 11 -6 8 -21z m-4040 -59 c15 -6
35 -17 45 -25 15 -14 15 -19 1 -60 -14 -42 -17 -44 -32 -30 -27 24 -41 19 -57
-19 -19 -45 -18 -55 5 -55 29 0 33 -15 20 -60 -11 -36 -15 -40 -45 -40 l-33 0
-57 -176 -57 -175 -41 6 c-23 4 -44 10 -48 14 -5 4 14 73 41 153 63 187 67
208 47 208 -19 0 -20 10 -4 61 8 29 17 39 32 39 16 0 29 17 56 73 22 45 44 77
60 84 31 16 32 16 67 2z m-610 -50 c79 -38 118 -144 93 -248 -7 -28 -15 -53
-19 -56 -4 -2 -72 14 -152 36 -79 21 -147 39 -151 39 -17 0 -7 -69 12 -93 25
-32 82 -45 124 -28 28 10 33 9 65 -23 41 -41 35 -55 -35 -82 -90 -34 -208 5
-252 85 -43 76 -24 209 43 297 65 85 182 116 272 73z m3483 -31 c0 -18 3 -57
7 -86 6 -52 6 -53 34 -47 28 6 29 5 31 -34 0 -23 1 -47 2 -53 1 -7 -12 -14
-28 -16 l-28 -4 7 -188 7 -189 -24 -6 c-12 -3 -34 -6 -48 -8 l-25 -2 -10 185
c-10 182 -10 185 -32 183 -18 -2 -23 4 -29 31 -9 49 -2 71 24 74 23 4 23 5 16
92 -7 98 -8 96 64 99 30 1 32 -1 32 -31z m775 -193 c14 -104 28 -204 31 -221
5 -30 4 -32 -40 -43 -58 -14 -56 -15 -56 9 0 18 -6 15 -38 -19 -68 -72 -159
-66 -231 15 -126 143 -83 387 77 435 34 10 45 9 85 -9 l47 -21 0 28 c0 25 5
29 43 38 34 7 43 6 49 -7 4 -8 18 -100 33 -205z m-470 63 c-4 -29 -8 -53 -9
-53 0 0 -10 -5 -21 -11 -40 -22 -47 -51 -39 -179 4 -66 8 -140 8 -165 l1 -44
-43 -9 c-24 -5 -45 -7 -47 -5 -4 5 -46 471 -42 474 1 2 22 6 45 10 41 6 42 6
42 -22 1 -27 1 -27 12 -9 21 39 52 65 76 65 23 0 24 -2 17 -52z m-2895 -33
c66 -34 100 -101 100 -197 0 -91 -28 -155 -92 -214 -55 -51 -105 -68 -170 -61
-71 9 -112 38 -144 103 -23 47 -26 64 -22 117 16 195 185 324 328 252z m289
-35 c20 0 22 -3 17 -26 l-7 -27 31 27 c34 28 77 34 86 12 3 -8 -4 -32 -16 -55
-15 -30 -27 -41 -44 -41 -47 0 -77 -64 -117 -252 -26 -118 -25 -116 -96 -102
l-30 6 22 96 c13 54 37 159 55 235 30 130 33 138 54 133 11 -3 32 -6 45 -6z
m1943 5 c2 -3 0 -27 -6 -54 -8 -39 -15 -51 -33 -56 -43 -10 -55 -56 -61 -226
l-5 -157 -30 -6 c-72 -15 -67 -33 -67 234 l0 240 23 0 c12 0 32 3 45 6 19 5
22 2 22 -21 l0 -26 34 35 c30 32 63 45 78 31z m-1527 -45 l33 0 22 -97 c12
-54 27 -117 33 -141 l12 -43 74 135 75 136 54 0 c30 0 52 -4 50 -10 -1 -5 -79
-149 -173 -319 l-170 -310 -52 -1 c-29 0 -53 3 -53 8 0 4 28 57 61 117 l61
110 -43 195 c-23 107 -45 204 -47 214 -4 15 -1 18 12 13 10 -4 33 -7 51 -7z
m1250 -122 c-11 -222 -29 -287 -93 -336 -30 -23 -45 -27 -98 -27 -75 0 -108
20 -142 86 -23 42 -24 51 -19 212 3 93 6 170 8 172 2 2 25 6 51 10 l48 7 -7
-166 c-6 -165 -6 -167 17 -191 29 -31 64 -32 95 -1 25 25 29 48 41 259 l6 107
49 0 50 0 -6 -132z m-567 93 c75 -38 111 -110 112 -216 0 -215 -219 -346 -357
-213 -118 113 -62 363 97 435 39 18 107 15 148 -6z"/>
<path d="M13914 3106 c-26 -26 -34 -42 -33 -67 1 -75 9 -75 88 5 l75 75 -28
11 c-45 17 -66 12 -102 -24z"/>
<path d="M12821 2206 c-102 -56 -39 -271 79 -271 30 0 47 7 68 28 23 24 27 35
27 85 -1 67 -29 123 -79 153 -36 22 -62 23 -95 5z"/>
<path d="M12378 1931 c-29 -26 -32 -34 -32 -83 2 -136 116 -218 195 -139 24
25 29 37 29 81 0 135 -109 216 -192 141z"/>
<path d="M5415 1702 c-40 -26 -61 -51 -80 -95 -22 -53 -19 -83 14 -119 25 -28
36 -33 73 -33 107 0 191 154 125 230 -30 35 -91 43 -132 17z"/>
<path d="M11595 1551 c-32 -13 -55 -46 -62 -84 l-6 -36 89 35 c49 20 93 40 98
44 11 11 -52 50 -79 49 -11 0 -29 -4 -40 -8z"/>
<path d="M6519 1315 c-53 -29 -43 -41 59 -68 53 -14 98 -24 100 -22 9 9 -21
76 -41 90 -27 19 -84 19 -118 0z"/>
<path d="M10682 1254 c-51 -36 -69 -140 -36 -210 48 -101 179 -70 199 47 20
120 -81 221 -163 163z"/>
<path d="M7395 1096 c-43 -46 -62 -114 -46 -166 14 -48 43 -70 92 -70 71 0
129 75 129 168 0 69 -31 102 -96 102 -40 0 -51 -5 -79 -34z"/>
<path d="M8835 1020 c-81 -33 -112 -184 -50 -246 50 -50 140 -22 171 52 17 41
18 114 2 149 -20 44 -76 65 -123 45z"/>
</g>
</svg>
